<svg width="22" height="21" viewBox="0 0 22 21" fill="none" xmlns="http://www.w3.org/2000/svg">
<path d="M16.5048 20.2301C16.3329 20.2298 16.1637 20.188 16.0116 20.1081L10.6056 17.2656L5.19959 20.1081C5.02444 20.2002 4.82701 20.2414 4.62963 20.2272C4.43225 20.2129 4.24279 20.1437 4.08268 20.0274C3.92257 19.9111 3.7982 19.7524 3.72361 19.5691C3.64903 19.3858 3.62721 19.1852 3.66063 18.9902L4.69262 12.9701L0.319669 8.7064C0.178172 8.56824 0.0781167 8.39328 0.0308029 8.20127C-0.0165109 8.00925 -0.00919909 7.80783 0.0519127 7.61975C0.113024 7.43167 0.225502 7.26443 0.376645 7.1369C0.527787 7.00937 0.711575 6.92663 0.907254 6.89803L6.95174 6.01984L9.65421 0.542783C9.75195 0.377438 9.8911 0.240421 10.0579 0.145239C10.2248 0.0500582 10.4135 0 10.6056 0C10.7977 0 10.9864 0.0500582 11.1533 0.145239C11.3201 0.240421 11.4592 0.377438 11.557 0.542783L14.2594 6.01984L20.3039 6.89803C20.4998 6.92648 20.6838 7.00918 20.8352 7.13679C20.9865 7.26439 21.0991 7.43179 21.1603 7.62007C21.2214 7.80834 21.2286 8.00996 21.1811 8.20213C21.1336 8.3943 21.0333 8.56934 20.8915 8.70746L16.5186 12.9701L17.5505 18.9902C17.5767 19.1425 17.5692 19.2986 17.5287 19.4477C17.4881 19.5967 17.4155 19.7352 17.3159 19.8533C17.2163 19.9714 17.0921 20.0663 16.952 20.1313C16.8119 20.1964 16.6593 20.2301 16.5048 20.2301Z" fill="#232323"/>
</svg>
