<svg width="75" height="24" viewBox="0 0 75 24" fill="none" xmlns="http://www.w3.org/2000/svg">
<mask id="mask0_1_328" style="mask-type:alpha" maskUnits="userSpaceOnUse" x="0" y="0" width="24" height="24">
<path fill-rule="evenodd" clip-rule="evenodd" d="M5.96464 0.0105371L6.9912 0L17.6724 0.00412416C17.8344 0.00577416 17.935 0.00779965 18.0358 0.0105371C18.5653 0.0245996 19.0995 0.0556127 19.6231 0.14865C20.1548 0.242925 20.6492 0.397163 21.1319 0.640313C21.6062 0.878888 22.0408 1.19066 22.4172 1.56326C22.7937 1.93496 23.1091 2.36419 23.3504 2.8335C23.5968 3.3111 23.7524 3.79988 23.8478 4.32544C23.9419 4.84312 23.9732 5.37116 23.9874 5.89466C23.9942 6.13489 23.9971 6.37515 23.9983 6.61579L23.9998 7.04362L24 16.5245C24 16.8099 24 17.0952 23.9983 17.3809C23.9971 17.6211 23.9942 17.8614 23.9874 18.1016C23.9732 18.6247 23.9419 19.1532 23.8478 19.6704C23.7524 20.196 23.5968 20.6852 23.3504 21.1628C23.1091 21.6317 22.7937 22.0609 22.4172 22.4331C22.0408 22.8052 21.6062 23.1174 21.1319 23.356C20.6492 23.5991 20.1548 23.7534 19.6231 23.8476C19.0995 23.9407 18.5653 23.9717 18.0358 23.9858L16.4405 23.9982L6.32771 23.9922C6.16575 23.9905 6.06521 23.9885 5.96464 23.9858C5.4351 23.9717 4.90095 23.9407 4.37726 23.8476C3.84566 23.7534 3.35126 23.5991 2.86856 23.356C2.39381 23.1174 1.95964 22.8052 1.58318 22.4331C1.20675 22.0609 0.891338 21.6317 0.649575 21.1628C0.40365 20.6852 0.248024 20.196 0.152249 19.6704C0.0581243 19.1532 0.0271872 18.6247 0.0129747 18.1016C0.00626224 17.8614 0.00333749 17.6211 0.00209999 17.3809L0.000263214 16.9525L0 7.47176C0 7.18642 -9.0804e-09 6.90071 0.00209999 6.61579C0.00333749 6.37515 0.00626224 6.13489 0.0129747 5.89466C0.0271872 5.37116 0.0581243 4.84312 0.152249 4.32544C0.248024 3.79988 0.40365 3.3111 0.649575 2.8335C0.891338 2.36419 1.20675 1.93496 1.58318 1.56326C1.95964 1.19066 2.39381 0.878888 2.86856 0.640313C3.35126 0.397163 3.84566 0.242925 4.37726 0.14865C4.90095 0.0556127 5.4351 0.0245996 5.96464 0.0105371Z" fill="white"/>
</mask>
<g mask="url(#mask0_1_328)">
<path d="M24 -0.00170898H0V23.9983H24V-0.00170898Z" fill="#19AA1E"/>
<path fill-rule="evenodd" clip-rule="evenodd" d="M0 -0.00170898H24V7.87329L0 4.12329V-0.00170898Z" fill="#FFB919"/>
<path fill-rule="evenodd" clip-rule="evenodd" d="M0 21.3733L24 17.6233V23.9983H0V21.3733Z" fill="#82D714"/>
<path fill-rule="evenodd" clip-rule="evenodd" d="M0 3.64868L8.37739 4.95762C9.42022 4.29751 10.6609 3.93559 12 3.93559C13.8547 3.93559 15.5206 4.62991 16.7336 5.84911C16.8867 6.00297 17.031 6.16384 17.1664 6.33091L24 7.39864V8.34751L17.8603 7.38822C18.3164 8.26354 18.5625 9.23881 18.5625 10.2341C18.5625 11.5199 18.2749 12.8019 17.6804 14.0891L17.6623 14.1281L17.4098 14.6691H16.8127C15.5798 14.6691 14.762 15.0379 14.2273 15.6915C13.8075 16.2047 13.5647 16.8965 13.483 17.6513L13.4805 17.6749L13.4686 17.7955L13.4635 17.848L13.4538 17.9506C13.4226 18.2876 13.4016 18.5734 13.391 18.8063L24 17.1486V18.0975L0 21.8475V20.8986L10.6209 19.2391L10.6163 19.0261L10.6149 18.966L10.614 18.9352L10.6123 18.8877C10.6027 18.6294 10.5791 18.2982 10.5412 17.897L10.5339 17.8209L10.5209 17.6891C10.4447 16.9303 10.2056 16.2297 9.78683 15.7089C9.25774 15.0509 8.44744 14.6766 7.22445 14.6692L7.18729 14.6691H6.59021L6.33773 14.1281C5.73094 12.8278 5.4375 11.5329 5.4375 10.2341C5.4375 8.60078 6.10013 7.02139 7.26641 5.84911C7.30009 5.81528 7.3341 5.78183 7.36845 5.74883L0 4.59751V3.64868Z" fill="white"/>
<path fill-rule="evenodd" clip-rule="evenodd" d="M12 4.87329C15.3506 4.87329 17.625 7.45228 17.625 10.2343C17.625 11.3512 17.3813 12.5134 16.8127 13.7318C13.5157 13.7318 12.7019 16.093 12.548 17.5786L12.5382 17.6776C12.486 18.2078 12.4559 18.6332 12.4476 18.9539L11.5546 19.0934L11.5544 19.0646C11.551 18.7284 11.5192 18.2568 11.4591 17.6498L11.4564 17.6233C11.3143 16.1409 10.5176 13.7318 7.18729 13.7318C6.61867 12.5134 6.375 11.3512 6.375 10.2343C6.375 7.45228 8.64937 4.87329 12 4.87329Z" fill="#0073FA"/>
</g>
<path fill-rule="evenodd" clip-rule="evenodd" d="M35.1001 5.81055C32.1751 5.81055 29.9814 7.5918 30.0001 10.6855H32.7189C32.6814 9.44805 33.4689 8.24805 35.1001 8.24805C36.3376 8.24805 37.1251 9.07305 37.1251 10.123C37.1251 11.2105 36.2626 11.8105 34.8751 12.4855C33.0564 13.3668 31.9689 13.7793 30.0001 14.4355V17.998H40.1251V15.5605H33.6751C34.6149 15.1688 35.5299 14.7386 36.3564 14.3418C38.5501 13.2918 39.8439 12.1105 39.8439 9.9918C39.8439 7.4418 37.9314 5.81055 35.1001 5.81055ZM44.2501 8.43555H49.5001V5.99805H41.6251V17.998H44.2501V8.43555ZM53.6251 5.99805H51.0001V17.998H53.6064L58.5001 10.3293V17.998H61.1251V5.99805H58.5001L53.6251 13.6668V5.99805ZM74.3064 13.498H71.5876C71.1751 14.8293 69.9189 15.748 68.4376 15.748C66.2814 15.748 64.8751 13.8918 64.8751 11.998C64.8751 10.1043 66.2439 8.24805 68.5126 8.24805C70.0126 8.24805 71.1751 9.1668 71.5876 10.498H74.3064C73.9126 7.8168 71.7939 5.81055 68.4376 5.81055C64.7251 5.81055 62.2501 8.4168 62.2501 11.998C62.2501 15.5793 64.7251 18.1855 68.4376 18.1855C71.7939 18.1855 73.9126 16.2168 74.3064 13.498Z" fill="#1A1A1A"/>
</svg>
