<svg width="22" height="21" viewBox="0 0 22 21" fill="none" xmlns="http://www.w3.org/2000/svg">
<path d="M17.2926 20.2301C17.1208 20.2298 16.9516 20.188 16.7994 20.1081L11.3934 17.2656L5.98744 20.1081C5.81228 20.2002 5.61485 20.2414 5.41747 20.2272C5.22009 20.2129 5.03064 20.1437 4.87053 20.0274C4.71042 19.9111 4.58604 19.7524 4.51145 19.5691C4.43687 19.3858 4.41505 19.1852 4.44847 18.9902L5.48046 12.9701L1.10751 8.7064C0.966013 8.56824 0.865958 8.39328 0.818645 8.20127C0.771331 8.00925 0.778643 7.80783 0.839754 7.61975C0.900866 7.43167 1.01334 7.26443 1.16449 7.1369C1.31563 7.00937 1.49942 6.92663 1.6951 6.89803L7.73958 6.01984L10.4421 0.542783C10.5398 0.377438 10.6789 0.240421 10.8458 0.145239C11.0126 0.0500582 11.2014 0 11.3934 0C11.5855 0 11.7743 0.0500582 11.9411 0.145239C12.1079 0.240421 12.2471 0.377438 12.3448 0.542783L15.0473 6.01984L21.0918 6.89803C21.2877 6.92648 21.4717 7.00918 21.623 7.13679C21.7744 7.26439 21.887 7.43179 21.9481 7.62007C22.0092 7.80834 22.0165 8.00996 21.969 8.20213C21.9215 8.3943 21.8212 8.56934 21.6793 8.70746L17.3064 12.9701L18.3384 18.9902C18.3645 19.1425 18.357 19.2986 18.3165 19.4477C18.276 19.5967 18.2034 19.7352 18.1038 19.8533C18.0042 19.9714 17.88 20.0663 17.7398 20.1313C17.5997 20.1964 17.4471 20.2301 17.2926 20.2301Z" fill="#232323" fill-opacity="0.15"/>
</svg>
