<svg width="100" height="44" viewBox="0 0 100 44" fill="none" xmlns="http://www.w3.org/2000/svg">
<path d="M99.8959 40.0316H99.4016C99.3848 40.0312 99.3682 40.0354 99.3535 40.0436C99.3389 40.0518 99.3267 40.0639 99.3183 40.0784L97.9968 41.9671C97.9872 41.981 97.9744 41.9924 97.9595 42.0003C97.9445 42.0082 97.9278 42.0123 97.9109 42.0123C97.894 42.0123 97.8774 42.0082 97.8624 42.0003C97.8475 41.9924 97.8346 41.981 97.8251 41.9671L96.4099 40.068C96.3994 40.0547 96.3859 40.044 96.3706 40.0368C96.3552 40.0295 96.3384 40.026 96.3214 40.0264H95.8844C95.8563 40.0264 95.8293 40.0372 95.8089 40.0565C95.7886 40.0759 95.7765 40.1024 95.7751 40.1305V43.3979C95.7751 43.4122 95.778 43.4264 95.7835 43.4397C95.7889 43.453 95.797 43.465 95.8071 43.4751C95.8173 43.4853 95.8293 43.4933 95.8426 43.4988C95.8558 43.5043 95.8701 43.5071 95.8844 43.5071H96.3162C96.3452 43.5071 96.373 43.4956 96.3935 43.4751C96.414 43.4547 96.4255 43.4269 96.4255 43.3979V41.1606L97.7575 42.9712H98.002L99.2715 41.1242C99.2715 41.1242 99.2715 41.1658 99.2715 41.1762V43.3979C99.2715 43.4122 99.2743 43.4264 99.2798 43.4397C99.2853 43.453 99.2934 43.465 99.3035 43.4751C99.3136 43.4853 99.3257 43.4933 99.3389 43.4988C99.3522 43.5043 99.3664 43.5071 99.3808 43.5071H99.8698C99.8842 43.5071 99.8984 43.5043 99.9117 43.4988C99.9249 43.4933 99.9369 43.4853 99.9471 43.4751C99.9572 43.465 99.9653 43.453 99.9708 43.4397C99.9763 43.4264 99.9791 43.4122 99.9791 43.3979V40.1357C99.9796 40.1113 99.9715 40.0876 99.9563 40.0686C99.9411 40.0495 99.9197 40.0365 99.8959 40.0316Z" fill="white"/>
<path d="M3.27753 42.8568H0.858177C0.844063 42.8568 0.830092 42.854 0.817116 42.8484C0.804139 42.8429 0.792428 42.8347 0.782694 42.8245C0.77296 42.8143 0.765407 42.8022 0.760495 42.789C0.755582 42.7757 0.753413 42.7616 0.754119 42.7475V42.1232C0.754119 42.1095 0.75681 42.096 0.762039 42.0834C0.767269 42.0708 0.774934 42.0593 0.784596 42.0496C0.794259 42.04 0.80573 42.0323 0.818355 42.0271C0.83098 42.0218 0.844512 42.0191 0.858177 42.0191H2.23695C2.26593 42.0191 2.29372 42.0076 2.31421 41.9871C2.3347 41.9666 2.34621 41.9389 2.34621 41.9099V41.4884C2.34621 41.4595 2.3347 41.4317 2.31421 41.4112C2.29372 41.3907 2.26593 41.3792 2.23695 41.3792H0.858177C0.844512 41.3792 0.83098 41.3765 0.818355 41.3713C0.80573 41.366 0.794259 41.3584 0.784596 41.3487C0.774934 41.339 0.767269 41.3276 0.762039 41.3149C0.75681 41.3023 0.754119 41.2888 0.754119 41.2751V40.7548C0.753413 40.7407 0.755582 40.7266 0.760495 40.7134C0.765407 40.7002 0.77296 40.6881 0.782694 40.6779C0.792428 40.6676 0.804139 40.6595 0.817116 40.654C0.830092 40.6484 0.844063 40.6456 0.858177 40.6456H3.25152C3.27911 40.6456 3.30558 40.6346 3.3251 40.6151C3.34461 40.5956 3.35558 40.5691 3.35558 40.5415V40.1097C3.35558 40.0821 3.34461 40.0556 3.3251 40.0361C3.30558 40.0166 3.27911 40.0056 3.25152 40.0056H0.129769C0.10167 40.0056 0.0746396 40.0164 0.0542924 40.0358C0.0339452 40.0551 0.0218458 40.0816 0.0205078 40.1097V43.3979C0.0205078 43.4269 0.0320192 43.4547 0.0525096 43.4752C0.0730001 43.4957 0.100791 43.5072 0.129769 43.5072H3.29834C3.31246 43.5072 3.32643 43.5043 3.3394 43.4988C3.35238 43.4932 3.36409 43.4851 3.37383 43.4749C3.38356 43.4647 3.39111 43.4526 3.39603 43.4393C3.40094 43.4261 3.40311 43.412 3.4024 43.3979V42.9661C3.40354 42.95 3.40094 42.934 3.39482 42.9191C3.3887 42.9042 3.37922 42.891 3.36713 42.8804C3.35503 42.8698 3.34064 42.8622 3.3251 42.8581C3.30955 42.854 3.29327 42.8536 3.27753 42.8568Z" fill="white"/>
<path d="M10.1249 40.0835L10.0936 40.0315H9.45368C9.43501 40.0319 9.41671 40.0368 9.40039 40.0459C9.38406 40.0549 9.37021 40.0679 9.36002 40.0835L7.58063 43.351C7.57133 43.367 7.5665 43.3853 7.56665 43.4039C7.5668 43.4225 7.57192 43.4407 7.58148 43.4566C7.59104 43.4725 7.60468 43.4856 7.621 43.4945C7.63732 43.5033 7.65572 43.5077 7.67428 43.507H8.19457C8.21409 43.5078 8.2334 43.5028 8.25007 43.4926C8.26674 43.4824 8.28001 43.4675 8.28822 43.4498L8.64722 42.7578C8.65714 42.7415 8.67081 42.7278 8.6871 42.7178C8.70339 42.7079 8.72183 42.702 8.74088 42.7006H10.7024C10.7222 42.7016 10.7415 42.7073 10.7587 42.7172C10.7759 42.7272 10.7905 42.7411 10.8012 42.7578L11.1602 43.4498C11.1684 43.4675 11.1817 43.4824 11.1984 43.4926C11.2151 43.5028 11.2344 43.5078 11.2539 43.507H11.8418C11.8605 43.5066 11.8788 43.5014 11.895 43.4919C11.9111 43.4824 11.9245 43.4689 11.9339 43.4527C11.9433 43.4365 11.9484 43.4181 11.9487 43.3994C11.9489 43.3807 11.9444 43.3622 11.9355 43.3458L10.1249 40.0835ZM10.2653 42.0814H9.19353C9.17553 42.0806 9.15801 42.0754 9.14254 42.0661C9.12707 42.0569 9.11412 42.044 9.10485 42.0285C9.09558 42.0131 9.09027 41.9956 9.08941 41.9776C9.08854 41.9596 9.09214 41.9416 9.09988 41.9254L9.62017 40.8848C9.62869 40.8672 9.64199 40.8523 9.65856 40.842C9.67512 40.8316 9.69427 40.8261 9.71382 40.8261C9.73337 40.8261 9.75252 40.8316 9.76909 40.842C9.78565 40.8523 9.79895 40.8672 9.80747 40.8848L10.3278 41.9254C10.3354 41.9395 10.3399 41.9551 10.3408 41.9711C10.3417 41.9871 10.3391 42.0032 10.3332 42.0181C10.3272 42.033 10.3181 42.0464 10.3063 42.0573C10.2946 42.0683 10.2806 42.0765 10.2653 42.0814Z" fill="white"/>
<path d="M19.8339 40.0315H19.3136C19.2995 40.0308 19.2854 40.0329 19.2721 40.0378C19.2589 40.0428 19.2468 40.0503 19.2366 40.06C19.2264 40.0698 19.2182 40.0815 19.2127 40.0945C19.2071 40.1074 19.2043 40.1214 19.2043 40.1355V42.737C19.2043 42.766 19.1928 42.7938 19.1723 42.8142C19.1518 42.8347 19.124 42.8462 19.095 42.8462H17.1336C17.1192 42.8462 17.105 42.8434 17.0917 42.8379C17.0785 42.8324 17.0664 42.8244 17.0563 42.8142C17.0461 42.8041 17.0381 42.7921 17.0326 42.7788C17.0271 42.7655 17.0243 42.7513 17.0243 42.737V40.1355C17.0243 40.1079 17.0133 40.0815 16.9938 40.0619C16.9743 40.0424 16.9478 40.0315 16.9202 40.0315H16.3999C16.3858 40.0308 16.3718 40.0329 16.3585 40.0378C16.3453 40.0428 16.3332 40.0503 16.323 40.06C16.3128 40.0698 16.3046 40.0815 16.2991 40.0945C16.2935 40.1074 16.2907 40.1214 16.2907 40.1355V42.6329C16.2643 42.8765 16.3333 43.1208 16.4832 43.3145C16.6743 43.4656 16.9175 43.5348 17.1596 43.507H19.1055C19.3458 43.534 19.5871 43.4648 19.7766 43.3145C19.9286 43.1218 19.9978 42.8767 19.9691 42.6329V40.1355C19.9688 40.1191 19.9648 40.103 19.9575 40.0884C19.9501 40.0738 19.9395 40.061 19.9265 40.051C19.9135 40.041 19.8984 40.034 19.8824 40.0307C19.8664 40.0273 19.8498 40.0276 19.8339 40.0315Z" fill="white"/>
<path d="M34.4792 40.302C34.3201 40.2011 34.1437 40.1305 33.9589 40.0939C33.7048 40.0485 33.447 40.0276 33.1889 40.0315H31.3679C31.3403 40.0315 31.3138 40.0424 31.2943 40.0619C31.2748 40.0815 31.2638 40.1079 31.2638 40.1355V43.3977C31.2631 43.4118 31.2653 43.4259 31.2702 43.4392C31.2751 43.4524 31.2826 43.4645 31.2924 43.4747C31.3021 43.4849 31.3138 43.4931 31.3268 43.4986C31.3398 43.5042 31.3537 43.507 31.3679 43.507H33.1681C33.4279 43.5111 33.6875 43.4902 33.9433 43.4446C34.1275 43.4059 34.3035 43.3355 34.4636 43.2365C34.69 43.0811 34.8698 42.8671 34.9839 42.6173C35.1116 42.3457 35.1757 42.0485 35.1712 41.7484C35.1748 41.4578 35.1088 41.1706 34.9787 40.9108C34.8688 40.6673 34.6965 40.4573 34.4792 40.302ZM34.1462 42.5965C33.8363 42.7924 33.471 42.8819 33.1056 42.8514H32.1171C32.103 42.8515 32.089 42.8486 32.076 42.8431C32.063 42.8375 32.0513 42.8294 32.0416 42.8191C32.0319 42.8089 32.0243 42.7968 32.0194 42.7836C32.0145 42.7704 32.0123 42.7563 32.013 42.7422V40.7859C32.013 40.7578 32.0238 40.7308 32.0432 40.7104C32.0625 40.6901 32.089 40.678 32.1171 40.6766H33.09C33.4554 40.6466 33.8205 40.736 34.1306 40.9316C34.239 41.0363 34.3224 41.1642 34.3746 41.3056C34.4269 41.447 34.4466 41.5983 34.4324 41.7484C34.4508 41.9022 34.4346 42.0581 34.3851 42.2048C34.3356 42.3515 34.254 42.4853 34.1462 42.5965Z" fill="white"/>
<path d="M43.3818 42.8567H40.9677C40.9387 42.8567 40.9109 42.8452 40.8904 42.8247C40.8699 42.8042 40.8584 42.7764 40.8584 42.7474V42.1231C40.8584 42.109 40.8613 42.095 40.8668 42.082C40.8724 42.0691 40.8805 42.0573 40.8907 42.0476C40.9009 42.0379 40.913 42.0303 40.9263 42.0254C40.9395 42.0205 40.9536 42.0183 40.9677 42.019H42.3413C42.3702 42.019 42.398 42.0075 42.4185 41.987C42.439 41.9665 42.4505 41.9387 42.4505 41.9098V41.4883C42.4505 41.4594 42.439 41.4316 42.4185 41.4111C42.398 41.3906 42.3702 41.3791 42.3413 41.3791H40.9677C40.9536 41.3798 40.9395 41.3776 40.9263 41.3727C40.913 41.3678 40.9009 41.3602 40.8907 41.3505C40.8805 41.3408 40.8724 41.3291 40.8668 41.3161C40.8613 41.3031 40.8584 41.2891 40.8584 41.275V40.7547C40.8584 40.7257 40.8699 40.698 40.8904 40.6775C40.9109 40.657 40.9387 40.6455 40.9677 40.6455H43.3558C43.3699 40.6462 43.384 40.644 43.3972 40.6391C43.4105 40.6342 43.4226 40.6266 43.4328 40.6169C43.443 40.6072 43.4511 40.5954 43.4567 40.5825C43.4622 40.5695 43.4651 40.5555 43.4651 40.5414V40.1096C43.4651 40.0954 43.4622 40.0815 43.4567 40.0685C43.4511 40.0555 43.443 40.0438 43.4328 40.0341C43.4226 40.0243 43.4105 40.0168 43.3972 40.0119C43.384 40.007 43.3699 40.0048 43.3558 40.0055H40.2341C40.2065 40.0055 40.18 40.0165 40.1605 40.036C40.141 40.0555 40.13 40.082 40.13 40.1096V43.3978C40.1293 43.4119 40.1315 43.426 40.1364 43.4392C40.1413 43.4525 40.1489 43.4645 40.1586 43.4748C40.1683 43.485 40.18 43.4931 40.193 43.4987C40.206 43.5042 40.22 43.5071 40.2341 43.5071H43.4026C43.4316 43.5071 43.4594 43.4955 43.4799 43.4751C43.5004 43.4546 43.5119 43.4268 43.5119 43.3978V42.966C43.5122 42.9497 43.5089 42.9335 43.5021 42.9187C43.4954 42.9039 43.4854 42.8908 43.4729 42.8803C43.4605 42.8698 43.4458 42.8623 43.4301 42.8582C43.4143 42.8541 43.3978 42.8536 43.3818 42.8567Z" fill="white"/>
<path d="M57.1384 40.0316H54.5057C54.4776 40.0315 54.4506 40.0423 54.4303 40.0617C54.4099 40.0811 54.3978 40.1075 54.3965 40.1356V43.3978C54.3965 43.4268 54.408 43.4546 54.4285 43.4751C54.449 43.4956 54.4768 43.5071 54.5057 43.5071H55.026C55.055 43.5071 55.0828 43.4956 55.1033 43.4751C55.1238 43.4546 55.1353 43.4268 55.1353 43.3978V42.3573C55.1353 42.3297 55.1463 42.3032 55.1658 42.2837C55.1853 42.2642 55.2118 42.2532 55.2394 42.2532H57.1228C57.3376 42.2735 57.5519 42.2101 57.7211 42.0763C57.7914 42.0026 57.8454 41.915 57.8794 41.8191C57.9135 41.7231 57.9269 41.6211 57.9189 41.5196V40.7652C57.9269 40.6637 57.9135 40.5616 57.8794 40.4657C57.8454 40.3698 57.7914 40.2821 57.7211 40.2085C57.556 40.0785 57.348 40.0153 57.1384 40.0316ZM57.18 41.3531C57.18 41.4832 57.1488 41.5352 57.128 41.5508C57.1072 41.5664 57.0656 41.5976 56.9251 41.5976H55.255C55.2409 41.5977 55.2269 41.5948 55.2139 41.5892C55.2009 41.5837 55.1892 41.5756 55.1795 41.5653C55.1697 41.5551 55.1622 41.543 55.1573 41.5298C55.1524 41.5166 55.1502 41.5025 55.1509 41.4884V40.7652C55.1502 40.7511 55.1524 40.737 55.1573 40.7237C55.1622 40.7105 55.1697 40.6984 55.1795 40.6882C55.1892 40.678 55.2009 40.6698 55.2139 40.6643C55.2269 40.6587 55.2409 40.6559 55.255 40.6559H56.9251C56.9978 40.6479 57.071 40.6644 57.1332 40.7027C57.1712 40.7612 57.1878 40.8311 57.18 40.9004V41.3531Z" fill="white"/>
<path d="M64.1568 40.0835V40.0315H63.4857C63.467 40.0319 63.4487 40.0368 63.4324 40.0459C63.416 40.0549 63.4022 40.0679 63.392 40.0835L61.6126 43.351C61.6033 43.367 61.5985 43.3853 61.5986 43.4039C61.5988 43.4225 61.6039 43.4407 61.6135 43.4566C61.623 43.4725 61.6367 43.4856 61.653 43.4945C61.6693 43.5033 61.6877 43.5077 61.7063 43.507H62.2266C62.2461 43.5078 62.2654 43.5028 62.2821 43.4926C62.2987 43.4824 62.312 43.4675 62.3202 43.4498L62.6792 42.7578C62.6891 42.7415 62.7028 42.7278 62.7191 42.7178C62.7354 42.7079 62.7538 42.702 62.7729 42.7006H64.7396C64.7586 42.702 64.777 42.7079 64.7933 42.7178C64.8096 42.7278 64.8233 42.7415 64.8332 42.7578L65.1922 43.4498C65.2004 43.4675 65.2137 43.4824 65.2304 43.4926C65.247 43.5028 65.2663 43.5078 65.2859 43.507H65.8738C65.8925 43.5066 65.9108 43.5014 65.9269 43.4919C65.9431 43.4824 65.9565 43.4689 65.9659 43.4527C65.9753 43.4365 65.9804 43.4181 65.9806 43.3994C65.9809 43.3807 65.9764 43.3622 65.9674 43.3458L64.1568 40.0835ZM64.3025 42.0814H63.2255C63.2075 42.0806 63.19 42.0754 63.1745 42.0661C63.1591 42.0569 63.1461 42.044 63.1368 42.0285C63.1276 42.0131 63.1223 41.9956 63.1214 41.9776C63.1205 41.9596 63.1241 41.9416 63.1319 41.9254L63.6522 40.8848C63.6615 40.8674 63.6754 40.8528 63.6923 40.8427C63.7093 40.8326 63.7287 40.8272 63.7484 40.8272C63.7682 40.8272 63.7875 40.8326 63.8045 40.8427C63.8214 40.8528 63.8353 40.8674 63.8447 40.8848L64.365 41.9254C64.3726 41.9395 64.3771 41.9551 64.378 41.9711C64.3789 41.9871 64.3763 42.0032 64.3704 42.0181C64.3644 42.033 64.3552 42.0464 64.3435 42.0573C64.3318 42.0683 64.3178 42.0765 64.3025 42.0814Z" fill="white"/>
<path d="M73.1013 42.2325H73.3043C73.5203 42.2489 73.7348 42.186 73.9078 42.0556C73.9738 41.9845 74.0249 41.9009 74.058 41.8098C74.091 41.7186 74.1054 41.6217 74.1003 41.5249V40.7652C74.1091 40.6641 74.0965 40.5623 74.0633 40.4664C74.0301 40.3705 73.9771 40.2826 73.9078 40.2085C73.736 40.0758 73.5205 40.0126 73.3043 40.0316H70.6716C70.644 40.0316 70.6175 40.0426 70.598 40.0621C70.5785 40.0816 70.5675 40.1081 70.5675 40.1357V43.3979C70.5668 43.412 70.569 43.4261 70.5739 43.4393C70.5788 43.4526 70.5864 43.4647 70.5961 43.4749C70.6058 43.4851 70.6175 43.4932 70.6305 43.4988C70.6435 43.5043 70.6575 43.5072 70.6716 43.5072H71.1919C71.2208 43.5072 71.2486 43.4957 71.2691 43.4752C71.2896 43.4547 71.3011 43.4269 71.3011 43.3979V42.3573C71.3011 42.3432 71.304 42.3292 71.3095 42.3163C71.3151 42.3033 71.3232 42.2916 71.3334 42.2819C71.3436 42.2721 71.3557 42.2646 71.369 42.2597C71.3822 42.2547 71.3963 42.2526 71.4104 42.2533H72.0816C72.1053 42.246 72.1307 42.246 72.1544 42.2533L73.4239 43.476C73.4431 43.4956 73.4693 43.5068 73.4968 43.5072H74.2876C74.309 43.5065 74.3297 43.4995 74.3472 43.4871C74.3647 43.4748 74.3781 43.4575 74.3859 43.4376C74.3936 43.4176 74.3954 43.3958 74.3908 43.3749C74.3863 43.354 74.3757 43.3348 74.3604 43.3199L73.1013 42.2325ZM71.426 41.6029C71.406 41.5994 71.3875 41.5902 71.3727 41.5763C71.3579 41.5625 71.3475 41.5446 71.3427 41.5249V40.7652C71.3427 40.7363 71.3543 40.7085 71.3748 40.688C71.3952 40.6675 71.423 40.656 71.452 40.656H73.1169C73.2574 40.656 73.3094 40.6872 73.3251 40.7028C73.3631 40.7594 73.3797 40.8276 73.3719 40.8953V41.3688C73.3719 41.4989 73.3407 41.5457 73.3251 41.5613C73.3094 41.5769 73.2678 41.6029 73.1169 41.6029H71.426Z" fill="white"/>
<path d="M82.3306 40.0316H79.2089C79.1948 40.0309 79.1807 40.0331 79.1674 40.038C79.1542 40.0429 79.1421 40.0505 79.1319 40.0602C79.1217 40.0699 79.1135 40.0816 79.108 40.0946C79.1024 40.1076 79.0996 40.1216 79.0996 40.1357V43.3979C79.0996 43.4269 79.1111 43.4547 79.1316 43.4752C79.1521 43.4957 79.1799 43.5072 79.2089 43.5072H79.7292C79.7433 43.5072 79.7572 43.5043 79.7702 43.4988C79.7832 43.4932 79.7949 43.4851 79.8046 43.4749C79.8144 43.4647 79.8219 43.4526 79.8268 43.4393C79.8318 43.4261 79.8339 43.412 79.8332 43.3979V42.2949C79.8332 42.2659 79.8447 42.2381 79.8652 42.2176C79.8857 42.1971 79.9135 42.1856 79.9425 42.1856H81.2276C81.2417 42.1863 81.2558 42.1842 81.269 42.1793C81.2822 42.1743 81.2943 42.1668 81.3046 42.1571C81.3148 42.1473 81.3229 42.1356 81.3285 42.1226C81.334 42.1097 81.3369 42.0957 81.3369 42.0816V41.6549C81.3369 41.6408 81.334 41.6269 81.3285 41.6139C81.3229 41.6009 81.3148 41.5892 81.3046 41.5795C81.2943 41.5697 81.2822 41.5622 81.269 41.5573C81.2558 41.5523 81.2417 41.5502 81.2276 41.5509H79.9789C79.9646 41.5509 79.9503 41.548 79.9371 41.5426C79.9238 41.5371 79.9118 41.529 79.9016 41.5189C79.8915 41.5087 79.8834 41.4967 79.878 41.4834C79.8725 41.4702 79.8696 41.456 79.8696 41.4416V40.786C79.8696 40.7717 79.8725 40.7575 79.878 40.7442C79.8834 40.731 79.8915 40.7189 79.9016 40.7088C79.9118 40.6986 79.9238 40.6906 79.9371 40.6851C79.9503 40.6796 79.9646 40.6768 79.9789 40.6768H82.3306C82.3447 40.6775 82.3588 40.6753 82.372 40.6704C82.3853 40.6655 82.3974 40.6579 82.4076 40.6482C82.4178 40.6385 82.4259 40.6268 82.4315 40.6138C82.437 40.6008 82.4399 40.5868 82.4399 40.5727V40.1357C82.4399 40.1216 82.437 40.1076 82.4315 40.0946C82.4259 40.0816 82.4178 40.0699 82.4076 40.0602C82.3974 40.0505 82.3853 40.0429 82.372 40.038C82.3588 40.0331 82.3447 40.0309 82.3306 40.0316Z" fill="white"/>
<path d="M90.4478 40.0316H89.9275C89.8999 40.0316 89.8735 40.0426 89.8539 40.0621C89.8344 40.0816 89.8235 40.1081 89.8235 40.1357V42.7372C89.8235 42.7515 89.8206 42.7657 89.8151 42.779C89.8097 42.7922 89.8016 42.8043 89.7915 42.8144C89.7813 42.8246 89.7693 42.8326 89.756 42.8381C89.7428 42.8436 89.7285 42.8464 89.7142 42.8464H87.7475C87.7185 42.8464 87.6907 42.8349 87.6702 42.8144C87.6497 42.7939 87.6382 42.7661 87.6382 42.7372V40.1357C87.6383 40.1216 87.6354 40.1076 87.6299 40.0946C87.6243 40.0817 87.6162 40.0699 87.6059 40.0602C87.5957 40.0505 87.5836 40.0429 87.5704 40.038C87.5572 40.0331 87.5431 40.0309 87.529 40.0316H87.0087C86.9811 40.0316 86.9546 40.0426 86.9351 40.0621C86.9156 40.0816 86.9046 40.1081 86.9046 40.1357V42.6331C86.8794 42.8757 86.9463 43.119 87.0919 43.3147C87.2857 43.4646 87.53 43.5336 87.7735 43.5072H89.7142C89.9562 43.5339 90.1989 43.4648 90.3906 43.3147C90.5382 43.1199 90.6052 42.8759 90.5779 42.6331V40.1357C90.5784 40.1195 90.5751 40.1035 90.5684 40.0888C90.5616 40.0741 90.5515 40.0612 90.5389 40.0511C90.5263 40.041 90.5115 40.034 90.4957 40.0306C90.4798 40.0272 90.4635 40.0276 90.4478 40.0316Z" fill="white"/>
<path d="M99.8803 32.8098H0.119667C0.0535768 32.8098 0 32.8634 0 32.9295V33.6423C0 33.7084 0.0535768 33.7619 0.119667 33.7619H99.8803C99.9464 33.7619 100 33.7084 100 33.6423V32.9295C100 32.8634 99.9464 32.8098 99.8803 32.8098Z" fill="white"/>
<path d="M99.8803 34.761H0.119667C0.0535768 34.761 0 34.8146 0 34.8807V35.12C0 35.1861 0.0535768 35.2397 0.119667 35.2397H99.8803C99.9464 35.2397 100 35.1861 100 35.12V34.8807C100 34.8146 99.9464 34.761 99.8803 34.761Z" fill="white"/>
<path d="M63.8758 27.9972H79.2192C79.2811 27.9979 79.3426 27.9863 79.4 27.9631C79.4574 27.9399 79.5096 27.9055 79.5537 27.8619C79.5977 27.8184 79.6327 27.7665 79.6565 27.7094C79.6804 27.6522 79.6927 27.5909 79.6927 27.529V24.4072C79.6927 24.2816 79.6428 24.1612 79.554 24.0724C79.4652 23.9836 79.3448 23.9337 79.2192 23.9337H68.4336C68.3716 23.9337 68.3103 23.9215 68.2532 23.8976C68.196 23.8738 68.1441 23.8388 68.1006 23.7948C68.057 23.7507 68.0227 23.6985 67.9994 23.6411C67.9762 23.5837 67.9646 23.5222 67.9653 23.4603V16.4311C67.9646 16.3692 67.9762 16.3078 67.9994 16.2503C68.0227 16.1929 68.057 16.1407 68.1006 16.0967C68.1441 16.0526 68.196 16.0177 68.2532 15.9938C68.3103 15.97 68.3716 15.9577 68.4336 15.9577H76.3628C76.4247 15.9577 76.4861 15.9454 76.5432 15.9215C76.6004 15.8977 76.6522 15.8627 76.6958 15.8187C76.7393 15.7747 76.7737 15.7224 76.7969 15.665C76.8202 15.6076 76.8318 15.5461 76.8311 15.4842V12.3625C76.8318 12.3005 76.8202 12.2391 76.7969 12.1817C76.7737 12.1243 76.7393 12.072 76.6958 12.028C76.6522 11.9839 76.6004 11.949 76.5432 11.9251C76.4861 11.9013 76.4247 11.889 76.3628 11.889H68.4336C68.3716 11.889 68.3103 11.8767 68.2532 11.8529C68.196 11.829 68.1441 11.794 68.1006 11.75C68.057 11.706 68.0227 11.6537 67.9994 11.5963C67.9762 11.5389 67.9646 11.4775 67.9653 11.4155V4.54768C67.9653 4.42349 68.0146 4.30439 68.1025 4.21657C68.1903 4.12876 68.3094 4.07942 68.4336 4.07942H79.2192C79.301 4.07924 79.3813 4.05789 79.4523 4.01745C79.5234 3.97701 79.5828 3.91886 79.6247 3.84866C79.6666 3.77846 79.6896 3.6986 79.6915 3.61686C79.6934 3.53512 79.6741 3.45429 79.6354 3.38223L77.9653 0.260482C77.9249 0.185165 77.8649 0.122182 77.7916 0.0782132C77.7183 0.0342445 77.6345 0.0109299 77.5491 0.0107422H63.8758C63.7502 0.0107422 63.6298 0.060625 63.541 0.149417C63.4522 0.238209 63.4023 0.358637 63.4023 0.484207V27.5394C63.4051 27.6626 63.4563 27.7799 63.545 27.8656C63.6336 27.9513 63.7525 27.9986 63.8758 27.9972Z" fill="white"/>
<path d="M83.9698 27.9971H99.4797C99.6177 27.9971 99.75 27.9423 99.8476 27.8447C99.9452 27.7472 100 27.6148 100 27.4768L98.3298 24.4123C98.2886 24.2651 98.2011 24.135 98.0802 24.0413C97.9593 23.9476 97.8116 23.8953 97.6587 23.892H88.6056C88.48 23.892 88.3596 23.8421 88.2708 23.7534C88.182 23.6646 88.1321 23.5441 88.1321 23.4186V0.473709C88.1321 0.348139 88.0822 0.227711 87.9935 0.138919C87.9047 0.0501268 87.7842 0.000244141 87.6587 0.000244141H83.9698C83.8442 0.000244141 83.7238 0.0501268 83.635 0.138919C83.5462 0.227711 83.4963 0.348139 83.4963 0.473709V27.5289C83.4963 27.5908 83.5086 27.6521 83.5325 27.7093C83.5563 27.7664 83.5913 27.8183 83.6353 27.8618C83.6794 27.9054 83.7316 27.9398 83.789 27.963C83.8464 27.9862 83.9079 27.9978 83.9698 27.9971Z" fill="white"/>
<path d="M0.473465 27.9972H15.8221C15.884 27.9979 15.9454 27.9863 16.0029 27.9631C16.0603 27.9399 16.1125 27.9055 16.1565 27.8619C16.2006 27.8184 16.2355 27.7665 16.2594 27.7094C16.2832 27.6522 16.2955 27.5909 16.2955 27.529V24.4072C16.2955 24.2817 16.2456 24.1612 16.1569 24.0724C16.0681 23.9837 15.9476 23.9338 15.8221 23.9338H5.03642C4.91085 23.9338 4.79042 23.8839 4.70163 23.7951C4.61284 23.7063 4.56296 23.5859 4.56296 23.4603V16.4312C4.56296 16.3056 4.61284 16.1852 4.70163 16.0964C4.79042 16.0076 4.91085 15.9577 5.03642 15.9577H12.9605C13.0817 15.9579 13.1983 15.9116 13.2864 15.8283C13.3745 15.7451 13.4273 15.6313 13.4339 15.5103V12.3885C13.4339 12.3263 13.4217 12.2648 13.3979 12.2073C13.3741 12.1499 13.3392 12.0977 13.2952 12.0537C13.2513 12.0097 13.1991 11.9749 13.1416 11.9511C13.0842 11.9273 13.0226 11.915 12.9605 11.915H5.03642C4.91085 11.915 4.79042 11.8652 4.70163 11.7764C4.61284 11.6876 4.56296 11.5671 4.56296 11.4416V4.54771C4.56295 4.48578 4.57523 4.42446 4.59909 4.36731C4.62295 4.31015 4.65791 4.2583 4.70194 4.21475C4.74598 4.1712 4.79821 4.13681 4.85563 4.11359C4.91304 4.09037 4.97449 4.07876 5.03642 4.07945H15.8221C15.9038 4.07927 15.9841 4.05792 16.0552 4.01748C16.1263 3.97704 16.1856 3.91889 16.2276 3.84869C16.2695 3.77849 16.2925 3.69863 16.2944 3.61689C16.2962 3.53515 16.2769 3.45432 16.2383 3.38226L14.563 0.260512C14.5235 0.184444 14.4637 0.120824 14.3902 0.0767315C14.3167 0.0326393 14.2324 0.00980544 14.1467 0.0107716H0.473465C0.347894 0.0107716 0.227467 0.0606545 0.138675 0.149446C0.0498828 0.238238 0 0.358666 0 0.484237V27.5394C0.00273237 27.6627 0.0539853 27.7799 0.142631 27.8656C0.231276 27.9514 0.350158 27.9986 0.473465 27.9972Z" fill="white"/>
<path d="M43.8289 27.9972H47.3201C47.4581 27.9972 47.5904 27.9424 47.688 27.8449C47.7856 27.7473 47.8404 27.6149 47.8404 27.477L47.9288 16.4988C47.9288 16.3608 47.9836 16.2285 48.0812 16.1309C48.1788 16.0333 48.3111 15.9785 48.4491 15.9785H56.3003C56.425 15.9785 56.5446 15.9294 56.6333 15.8417C56.7219 15.754 56.7724 15.6349 56.7738 15.5103V12.3885C56.7738 12.2629 56.7239 12.1425 56.6351 12.0537C56.5463 11.9649 56.4259 11.915 56.3003 11.915H48.3867C48.3248 11.915 48.2634 11.9028 48.2063 11.8789C48.1491 11.855 48.0973 11.8201 48.0537 11.7761C48.0102 11.732 47.9758 11.6798 47.9526 11.6224C47.9293 11.565 47.9177 11.5035 47.9184 11.4416V4.54771C47.9184 4.42352 47.9678 4.30442 48.0556 4.2166C48.1434 4.12878 48.2625 4.07945 48.3867 4.07945H59.1255C59.2073 4.07927 59.2876 4.05792 59.3586 4.01748C59.4297 3.97704 59.4891 3.91889 59.531 3.84869C59.5729 3.77849 59.5959 3.69863 59.5978 3.61689C59.5997 3.53515 59.5804 3.45432 59.5417 3.38226L57.8664 0.260512C57.8269 0.184444 57.7671 0.120824 57.6936 0.0767315C57.6201 0.0326393 57.5359 0.00980544 57.4502 0.0107716H43.8289C43.7034 0.0107716 43.5829 0.0606545 43.4941 0.149446C43.4054 0.238238 43.3555 0.358666 43.3555 0.484237V27.5394C43.3582 27.6627 43.4095 27.7799 43.4981 27.8656C43.5867 27.9514 43.7056 27.9986 43.8289 27.9972Z" fill="white"/>
<path d="M26.9979 16.6236C27.041 16.713 27.0641 16.8106 27.0655 16.9098V27.3729C27.0709 27.5403 27.1413 27.6991 27.2617 27.8157C27.3821 27.9322 27.5431 27.9973 27.7107 27.9972H31.0093C31.0945 27.9979 31.1789 27.9817 31.2578 27.9496C31.3367 27.9175 31.4084 27.8701 31.4689 27.8101C31.5294 27.7501 31.5773 27.6788 31.6101 27.6001C31.6428 27.5215 31.6597 27.4372 31.6597 27.352V16.9098C31.6585 16.8103 31.6817 16.7121 31.7273 16.6236L39.4849 0.942048C39.5322 0.8432 39.5538 0.733988 39.5477 0.624557C39.5415 0.515126 39.5078 0.409025 39.4497 0.31611C39.3915 0.223196 39.3109 0.14648 39.2151 0.0930909C39.1194 0.0397014 39.0118 0.0113694 38.9021 0.0107266H35.1873C35.0618 0.0108498 34.939 0.0472637 34.8338 0.115578C34.7286 0.183893 34.6453 0.281191 34.5941 0.395742L29.6878 11.3791L29.5161 11.7225C29.5024 11.7524 29.4804 11.7777 29.4527 11.7955C29.4251 11.8132 29.3929 11.8227 29.36 11.8227C29.3271 11.8227 29.2949 11.8132 29.2673 11.7955C29.2396 11.7777 29.2176 11.7524 29.2039 11.7225L29.0374 11.3791L24.1311 0.385336C24.0799 0.270785 23.9967 0.173487 23.8914 0.105172C23.7862 0.0368579 23.6634 0.000443987 23.5379 0.000320758H19.8335C19.721 -0.00322566 19.6096 0.0226875 19.5103 0.0754893C19.411 0.128291 19.3272 0.206146 19.2672 0.301331C19.2073 0.396515 19.1733 0.505721 19.1685 0.618113C19.1638 0.730504 19.1886 0.842176 19.2403 0.942048L26.9979 16.6236Z" fill="white"/>
</svg>
